<svg width="42" height="41" viewBox="0 0 42 41" fill="none" xmlns="http://www.w3.org/2000/svg">
<path d="M29.1105 0H12.5409C9.30226 0.00246793 6.19695 1.29012 3.90686 3.5802C1.61678 5.87029 0.329128 8.9756 0.32666 12.2143V28.7839C0.328635 32.0229 1.61607 35.1286 3.90621 37.4191C6.19634 39.7096 9.30194 40.9975 12.5409 41H29.1105C32.3494 40.997 35.4547 39.709 37.7447 37.4186C40.0347 35.1282 41.3223 32.0227 41.3248 28.7839V12.2143C41.3233 8.9753 40.036 5.86941 37.7457 3.57911C35.4554 1.28881 32.3495 0.00148158 29.1105 0ZM37.2024 28.7839C37.2019 30.9298 36.3492 32.9877 34.8318 34.5052C33.3144 36.0226 31.2565 36.8753 29.1105 36.8758H12.5409C11.4784 36.8758 10.4262 36.6665 9.44458 36.2598C8.46292 35.8531 7.571 35.257 6.81975 34.5056C6.06849 33.7542 5.47262 32.8621 5.06617 31.8804C4.65972 30.8986 4.45064 29.8464 4.45089 28.7839V12.2143C4.45064 11.1518 4.65973 10.0997 5.06621 9.11805C5.47268 8.13641 6.06858 7.24448 6.81986 6.4932C7.57114 5.74192 8.46308 5.14602 9.44472 4.73955C10.4264 4.33307 11.4785 4.12398 12.5409 4.12423H29.1105C31.256 4.12472 33.3134 4.97722 34.8305 6.49429C36.3476 8.01136 37.2001 10.0688 37.2006 12.2143L37.2024 28.7839Z" fill="white"/>
<path d="M20.8269 9.89985C14.9788 9.89985 10.2266 14.654 10.2266 20.5002C10.2266 26.3464 14.9807 31.1006 20.8269 31.1006C26.6732 31.1006 31.4273 26.3464 31.4273 20.5002C31.4273 14.654 26.675 9.89985 20.8269 9.89985ZM20.8269 26.9764C19.1093 26.9766 17.462 26.2945 16.2473 25.0802C15.0326 23.8659 14.3501 22.2187 14.3499 20.5011C14.3496 18.7836 15.0317 17.1362 16.246 15.9216C17.4604 14.7069 19.1075 14.0243 20.8251 14.0241C22.5426 14.0238 24.19 14.7059 25.4047 15.9202C26.6193 17.1346 27.3019 18.7817 27.3021 20.4993C27.3024 22.2169 26.6203 23.8642 25.406 25.0789C24.1916 26.2936 22.5445 26.9761 20.8269 26.9764ZM31.4497 7.43799C31.9519 7.43836 32.4427 7.5876 32.8602 7.86685C33.2776 8.14611 33.6029 8.54284 33.7949 9.00692C33.9869 9.47099 34.0371 9.98157 33.939 10.4741C33.841 10.9667 33.5991 11.4191 33.2439 11.7743C32.8888 12.1294 32.4364 12.3713 31.9438 12.4694C31.4512 12.5674 30.9407 12.5173 30.4766 12.3253C30.0125 12.1332 29.6158 11.8079 29.3365 11.3905C29.0573 10.9731 28.908 10.4822 28.9077 9.97999C28.9077 8.57853 29.8581 7.43799 31.4497 7.43799Z" fill="white"/>
</svg>
