<svg width="1032" height="551" viewBox="0 0 1032 551" fill="none" xmlns="http://www.w3.org/2000/svg">
<path d="M195.699 131.3C195.699 131.3 168.699 87.4001 121.399 109.1C121.399 109.1 96.5994 119.2 101.599 145.2C101.599 145.2 103.799 161.6 136.199 172.3C136.199 172.3 183.799 193.9 164.899 211.3C164.899 211.3 150.099 225.3 135.199 218C135.199 218 125.099 212.8 131.699 202.2C131.699 202.2 137.299 191.6 126.199 191.4C126.199 191.4 107.099 196.2 104.799 205.3C104.799 205.3 109.999 236 139.899 235.2C139.899 235.2 178.899 235.3 192.999 210C192.999 210 207.599 187.3 171.699 164.7C171.699 164.7 157.899 156.6 147.999 152.6C147.999 152.6 124.199 143.4 131.099 129.8C131.099 129.8 139.399 111.6 168.099 125.5C168.099 125.5 176.699 130.8 178.599 132C178.499 132 190.699 139.6 195.699 131.3Z" fill="#DDDAD3"/>
<path d="M252.6 154.2C252.6 154.2 232 163.9 231.9 167.9C231.9 167.9 223.3 218.9 241.6 230C241.6 230 250.7 237 274.7 234.9C274.7 234.9 289.6 234.5 298.8 207.8C298.8 207.8 317.7 158.9 307.7 147.9C307.7 147.9 289.9 126.2 279 140.7C279 140.7 275.2 146 283.8 156.5C283.8 156.5 291.6 164.9 280.7 187.1C280.7 187.1 271.6 209.9 256.5 209.2C256.5 209.2 241.5 208.5 249.4 174.3C249.4 174.3 251.6 164.1 254.8 159.8C254.7 159.8 259.1 152.8 252.6 154.2Z" fill="#DDDAD3"/>
<path d="M340.6 233.8C339 233.5 338.5 231.5 339.5 230.2C341 228.3 342.8 225.3 343.7 221.5C345.4 214.6 343.3 135.4 343.3 135.4L366 135L367.4 218.2C367.4 220.3 367.9 222.3 368.7 224.3C369.5 226.3 370.8 228.8 372.3 230.7C373 231.6 372.6 233.6 371.5 233.8C363.2 235 353.9 236.3 340.6 233.8Z" fill="#DDDAD3"/>
<path d="M473.799 154.1C473.799 154.1 452.699 119.8 415.799 136.7C415.799 136.7 396.399 144.6 400.299 164.8C400.299 164.8 401.999 177.6 427.299 186C427.299 186 464.399 202.8 449.699 216.4C449.699 216.4 438.199 227.3 426.499 221.6C426.499 221.6 418.599 217.5 423.799 209.3C423.799 209.3 428.199 201.1 419.499 200.9C419.499 200.9 404.599 204.7 402.799 211.8C402.799 211.8 406.899 235.8 430.199 235.2C430.199 235.2 460.599 235.3 471.699 215.5C471.699 215.5 483.099 197.8 454.999 180.1C454.999 180.1 444.199 173.8 436.499 170.6C436.499 170.6 417.999 163.4 423.299 152.8C423.299 152.8 429.799 138.6 452.199 149.4C452.199 149.4 458.899 153.5 460.399 154.5C460.399 154.7 469.899 160.6 473.799 154.1Z" fill="#DDDAD3"/>
<path d="M589.8 222.3C586.3 227.8 579.5 231.5 574.9 233.5C572.3 234.7 569.5 235.2 566.6 235.2H506.5C512.3 230.9 513.8 123.8 513.8 123.8L538.3 111C539.5 110.4 540.9 111.6 540.4 112.9C527.6 144.1 530.8 212.4 530.8 212.4C540.6 207.4 552.5 214.8 552.5 214.8C565.9 221.8 578.9 220 586.1 218L586 218.1C586.1 218.2 592.5 217.3 589.8 222.3Z" fill="#DDDAD3"/>
<path d="M714.099 158.8C717.999 154.1 706.599 148.2 706.599 148.2C666.299 116.5 635.099 150 635.099 150C605.299 185.8 629.599 213.2 638.999 221.7L630.199 231.3C619.999 241.2 624.299 247.1 624.299 247.1C628.399 253.5 633.199 250.6 633.199 250.6C634.699 249.4 634.599 247.2 634.199 245.4C633.599 242.9 634.199 240.3 635.899 238.4C638.299 235.7 641.999 231.8 646.499 227.1C680.999 246.9 703.099 222.1 710.899 210.8C712.399 208.6 710.899 205.5 708.199 205.4L701.699 205.1C697.299 209 683.399 216.2 683.399 216.2C670.799 221.3 661.499 221.3 654.599 218.8C678.499 194 714.099 158.8 714.099 158.8ZM686.799 169.8L646.199 213.8C636.699 205.3 634.999 191.5 634.999 191.5C631.999 158.2 654.699 149.4 654.699 149.4C683.799 139.7 686.599 164.1 686.799 169.8Z" fill="#DDDAD3"/>
<path d="M810.1 210.4C810.1 210.4 797.6 210.7 799.5 204.5C799.5 204.5 805.9 168.3 794.5 158.2C794.5 158.2 784.8 148.6 776.8 155.9L776.5 250C776.5 252.1 777 254.1 777.8 256.1C778.6 258.1 779.9 260.6 781.4 262.5C782.1 263.4 781.7 265.4 780.6 265.6C772.3 266.9 762.9 268.2 749.7 265.7C748.1 265.4 747.6 263.4 748.6 262.1C750.1 260.2 751.9 257.2 752.8 253.4C752.9 253 753 252.3 753.1 251.4L756.1 155.2C756.1 155.2 755.4 149.4 762.9 147C762.9 147 775.4 140.5 777.6 139C777.6 139 789 126 805.1 145.2C805.1 145.2 820.9 159.1 812.6 186.4C812.6 186.4 809.4 199.6 818.2 206.3C818.3 206.3 822.5 211 810.1 210.4Z" fill="#DDDAD3"/>
<path d="M920.699 170.3C920.699 170.3 907.499 130.6 884.499 135.3C884.499 135.3 868.799 135.6 860.899 163.8C860.899 163.8 846.699 202.2 853.799 206.2L867.999 214.9C867.999 214.9 872.599 218 875.099 216.1C875.099 216.1 876.899 215.2 870.499 204.8C870.499 204.8 877.099 199.4 904.799 210C904.799 210 903.599 213.4 898.999 221.8C898.999 221.8 894.199 231 902.399 234.5C902.399 234.5 910.699 237.3 917.099 232.4C917.099 232.4 928.699 224.4 930.299 216.9C930.299 216.9 932.799 200.3 920.699 170.3ZM870.399 187.7C870.399 187.7 877.399 168.9 881.599 163.2C881.599 163.2 897.599 173.8 904.799 197.6C904.799 197.7 904.799 197.7 904.799 197.8C904.899 197.8 889.399 196.2 870.399 187.7Z" fill="#DDDAD3"/>
<path d="M462.2 379C462 379.8 461.8 380.6 461.5 381.4C466.3 385.3 470.4 390.3 473.4 396.2C475.5 400.3 476.9 404.6 477.7 408.9C477.4 409.5 477 410 476.7 410.5C472.6 416.9 467.7 422.8 461.9 428C461.1 428.7 460.3 429.4 459.5 430.1C455.2 429.9 450.9 429.2 446.7 427.8C440.3 425.7 434.6 422.4 430 418.1C429.3 418.4 428.6 418.7 427.9 419C430.9 427.5 431.5 436.9 429.1 446.2C419 449.1 408.7 450.1 398.6 449.2C395.6 446 392.9 442.3 390.8 438.2C387.8 432.3 386.2 426.1 385.8 419.9C385 419.6 384.2 419.3 383.4 419C379.5 427.1 373.1 434.2 364.8 439C361.4 437.1 358.1 435 354.9 432.6C349.6 428.6 344.8 424 340.5 418.8C341.5 416 342.8 413.4 344.2 410.9C347.5 405.4 351.8 400.7 356.8 397.1C356.1 396.1 355.5 395.1 354.9 394C348.8 394.6 342.5 393.9 336.4 391.9C331.7 390.4 327.5 388.2 323.7 385.4C321.4 376 320.7 366.3 321.6 357C330.3 352.8 339.7 351.6 348.6 352.9C348.9 351.7 349.2 350.4 349.5 349.2C344.9 345.3 341 340.5 338.2 334.9C335.9 330.4 334.4 325.7 333.7 321C336.3 316.8 339.3 312.7 342.6 309C344.9 306.3 347.5 303.8 350.2 301.4C355.1 301.3 360.1 302.1 365.1 303.7C367.9 304.6 370.6 305.8 373.1 307.2C375.8 308.7 378.4 310.4 380.7 312.4C381.9 311.8 383.2 311.3 384.4 310.8C381.8 302.2 381.6 292.7 384.5 283.4C393.7 281 403 280.3 412.2 281C415.6 284.4 418.5 288.3 420.8 292.8C423.7 298.5 425.3 304.5 425.7 310.4C426.9 310.8 428.1 311.3 429.2 311.8C433.4 303.8 439.9 297 448.4 292.4C451.3 294.1 454.2 296.1 456.9 298.2C462.6 302.5 467.7 307.6 472.2 313.4C471.8 314.4 471.4 315.5 470.9 316.5C467.4 324.2 462 330.5 455.5 335.2C456 336 456.4 336.7 456.8 337.5C462.8 337 469.1 337.6 475.3 339.6C479.8 341.1 483.9 343.2 487.6 345.8C490 355.7 490.4 365.9 489.2 375.7C480.5 379.6 471.1 380.6 462.2 379Z" fill="#FAB716"/>
<path d="M507.599 394.7C505.399 394.7 504.299 393.6 504.299 391.5C504.299 390.4 504.799 389.7 505.899 389.3C509.999 387.7 514.199 386.2 518.299 384.9C522.999 357.3 530.699 336 541.199 321C547.599 312 554.999 307.5 563.599 307.5H563.799C567.099 307.5 569.599 308.5 571.399 310.5C573.199 312.5 574.099 315 574.099 318.1V319.3C572.299 336.2 558.999 356.5 534.099 380.4C544.299 377.6 552.799 376 559.599 375.4H560.299C562.499 375.4 563.599 376.5 563.599 378.6C563.599 380.7 562.599 381.9 560.699 382.2C553.899 382.9 543.799 384.9 530.499 388.2C529.899 393 529.599 397.4 529.599 401.3C529.599 416 534.599 423.4 544.499 423.4C552.499 423.4 561.199 418.2 570.699 407.7C571.399 407 572.299 406.7 573.299 406.7C574.299 406.7 575.099 407.1 575.999 407.8C576.799 408.5 577.199 409.5 577.199 410.8C577.199 412.1 576.599 413.3 575.399 414.5C564.599 426.3 553.599 432.2 542.299 432.2C525.599 432.2 517.199 421.4 517.199 399.8C517.199 397.3 517.299 394.6 517.599 391.8L507.599 394.7ZM561.299 317.1C553.699 317.1 546.299 326.6 539.099 345.6C535.199 355.4 532.499 365.1 530.899 374.7C531.599 373.6 535.099 369.5 541.299 362.4C547.499 355.2 552.399 348.8 555.799 343.1C559.299 337.4 561.499 332.7 562.399 328.9C563.299 325.1 563.699 322.2 563.699 320.2C563.699 318.2 562.999 317.1 561.299 317.1Z" fill="#323431"/>
<path d="M566.699 411.2C566.699 409.5 566.799 408.1 566.899 407.2C568.499 393.4 572.299 380.7 578.199 369C579.499 366.5 581.799 365.2 584.899 365.2C587.999 365.2 589.599 366.3 589.599 368.6C589.599 369 588.899 370.9 587.399 374.2C585.899 377.5 584.699 380.4 583.799 382.8C580.499 390.6 578.599 399.3 577.999 408.9V410.9C577.999 418.3 581.299 422 587.799 422C592.399 421.9 596.399 420 599.899 416.3C603.399 412.7 606.699 406.3 609.799 397.3L619.099 370.4C620.299 367.2 622.399 365.6 625.499 365.6C626.999 365.6 628.199 365.9 629.299 366.6C630.299 367.3 630.899 367.9 630.899 368.6C630.899 369.3 630.799 369.8 630.699 370.1C630.599 370.4 629.799 372.4 628.499 375.9C627.199 379.4 625.899 382.7 624.799 385.8C623.699 388.9 622.399 393.3 620.999 399.2C619.599 405.1 618.899 409.8 618.899 413.2C618.899 419.3 620.599 422.4 624.099 422.4C627.599 422.4 631.399 420.8 635.399 417.7C639.499 414.6 642.599 411.6 644.799 408.8C646.399 406.9 648.099 406 649.899 406C652.599 406 653.899 407 653.899 409C653.899 409.9 653.599 410.7 652.999 411.4C649.999 415.9 645.499 420.2 639.499 424.1C633.399 428.1 627.699 430.1 622.399 430.1C614.099 430.1 609.999 425.5 609.999 416.2C604.099 425.6 596.199 430.3 586.499 430.3C580.099 430.3 575.199 428.6 571.799 425.2C568.399 421.9 566.699 417.2 566.699 411.2Z" fill="#323431"/>
<path d="M643.699 411.2C643.699 409.5 643.799 408.1 643.899 407.2C645.499 393.4 649.299 380.7 655.199 369C656.499 366.5 658.799 365.2 661.899 365.2C664.999 365.2 666.599 366.3 666.599 368.6C666.599 369 665.899 370.9 664.399 374.2C662.899 377.5 661.699 380.4 660.799 382.8C657.499 390.6 655.599 399.3 654.999 408.9V410.9C654.999 418.3 658.299 422 664.799 422C669.399 421.9 673.399 420 676.899 416.3C680.399 412.7 683.699 406.3 686.799 397.3L696.099 370.4C697.299 367.2 699.399 365.6 702.499 365.6C703.999 365.6 705.199 365.9 706.299 366.6C707.299 367.3 707.899 367.9 707.899 368.6C707.899 369.3 707.799 369.8 707.699 370.1C707.599 370.4 706.799 372.4 705.499 375.9C704.199 379.4 702.899 382.7 701.799 385.8C700.699 388.9 699.399 393.3 697.999 399.2C696.599 405.1 695.899 409.8 695.899 413.2C695.899 419.3 697.599 422.4 701.099 422.4C704.599 422.4 708.399 420.8 712.399 417.7C716.499 414.6 719.599 411.6 721.799 408.8C723.399 406.9 725.099 406 726.899 406C729.599 406 730.899 407 730.899 409C730.899 409.9 730.599 410.7 729.999 411.4C726.999 415.9 722.499 420.2 716.499 424.1C710.399 428.1 704.699 430.1 699.399 430.1C691.099 430.1 686.999 425.5 686.999 416.2C681.099 425.6 673.199 430.3 663.499 430.3C657.099 430.3 652.199 428.6 648.799 425.2C645.399 421.9 643.699 417.2 643.699 411.2Z" fill="#323431"/>
<path d="M745 429.3C731.1 429.3 724.1 420.1 724.1 401.6C724.1 388.6 727.1 372.7 733 353.8C737.3 339.7 743.6 327 751.8 315.6C760 304.2 768.8 298.5 778.1 298.5C782.2 298.5 785.5 299.9 787.9 302.7C790.3 305.5 791.5 308.9 791.5 312.9C791.5 324.3 785.9 336.9 774.7 350.6C763.5 364.3 751.2 375.8 737.7 384.9C736.5 391.9 735.9 397.9 735.9 402.8C735.9 414.9 740.2 420.9 748.8 420.9C756.9 420.9 765.9 415.7 775.7 405.4C776.3 404.9 777.1 404.6 778 404.6C779 404.6 779.9 404.9 780.8 405.6C781.7 406.3 782.1 407.2 782.1 408.5C782.1 409.8 781.4 411.1 780.1 412.4C768.9 423.7 757.2 429.3 745 429.3ZM774.3 309.9C769.4 309.9 764.2 314.3 758.6 323C753 331.7 748.6 341 745.2 350.8C741.8 360.6 739.5 368.8 738.3 375.6C766.3 350.1 780.3 330.3 780.3 316.1C780.3 311.9 778.3 309.9 774.3 309.9Z" fill="#323431"/>
<path d="M772.6 411.8C772.6 406.4 774.2 399.4 777.3 390.9C783.8 373.1 789.1 364.2 793.1 364.2C795.2 364.2 796.8 364.6 798.1 365.3C799.4 366 800 366.8 800 367.5C800 368.2 799 370.3 797 373.7C795 377.1 792.4 382.9 789.2 391.1C786 399.3 784.4 405.8 784.4 410.6C784.4 417.5 787.5 420.9 793.7 420.9C800.8 420.9 809.1 416.2 818.6 406.8C820.4 405.1 822.2 405 824.2 406.6C826.1 407.9 826 410 824 412.8C813.5 423.9 802.8 429.5 792 429.5C786.2 429.5 781.6 427.8 778 424.5C774.3 421.2 772.6 417 772.6 411.8ZM806.5 347.3C800.6 347.3 797.6 345 797.6 340.5C797.6 338.1 798.6 336.2 800.5 334.8C802.4 333.4 804.9 332.7 808.1 332.7C813.6 332.7 816.3 334.9 816.3 339.3C816.3 341.4 815.4 343.3 813.6 344.9C811.9 346.5 809.5 347.3 806.5 347.3Z" fill="#323431"/>
<path d="M900.3 378.8C900.3 382.8 898.9 386.6 896.1 390.3C893.3 394 890.2 397 886.8 399.3C883.4 401.6 880.1 404.1 877 407.1C873.9 410 872.2 412.5 872 414.7C871.8 416.8 872.3 418.4 873.6 419.5C874.9 420.6 876.9 421.1 879.6 421.1C882.3 421.1 885.7 420.2 889.6 418.5C893.5 416.8 896.9 414.9 899.6 412.8C902.3 410.7 905.3 408.1 908.6 404.7C911.9 401.4 914 398.9 915 397.3C916.2 397.3 917.1 397.8 917.9 398.8C918.6 399.8 919 401 919 402.3C919 403.6 918.6 404.7 917.9 405.5C912 413.5 905.2 419.5 897.5 423.7C889.8 427.9 882.6 430 876 430C865 430 859.6 425.8 859.6 417.3C859.6 413.9 861.1 410.2 864.2 406.5C867.2 402.7 870.6 399.5 874.3 396.8C884.1 389.5 889 384.3 889 381.1C889 376.2 886.6 373.7 881.9 373.7H881.2C877.2 374 872.4 377.1 866.8 383.1C861.2 389.1 856.1 395.5 851.5 402.4C839.2 420.8 831.1 430.1 827.1 430.1C825.9 430.1 825 429.6 824.2 428.7C822.1 426.7 821.1 419.5 821.1 407.2C822.9 376.9 828.9 351.7 839.2 331.5C849.5 311.3 861.1 301.1 874 301.1C877.8 301.1 881 302.6 883.4 305.7C885.8 308.8 887.1 312.2 887.1 316.1C887.1 328.2 881.3 341 869.8 354.6C858.3 368.2 846.2 379.3 833.6 387.9C832.1 398.2 831.4 407.2 831.4 414.8C841.9 399.7 850.6 388.3 857.5 380.8C864.4 373.3 869.6 368.6 873 366.8C876.5 365 880.6 364.1 885.2 364.1C889.9 364.1 893.6 365.4 896.4 368.1C898.9 370.5 900.3 374.1 900.3 378.8ZM875.6 317.8C875.6 313.7 873.6 311.6 869.6 311.6C862.9 311.7 856.2 318.7 849.4 332.6C842.6 346.5 837.5 361.5 834.1 377.7C840.6 374 849.2 364.8 859.8 350.2C870.3 335.7 875.6 324.9 875.6 317.8Z" fill="#323431"/>
</svg>
