<svg width="21" height="26" viewBox="0 0 21 26" fill="none" xmlns="http://www.w3.org/2000/svg">
<path d="M10.5 13C11.2219 13 11.8398 12.7454 12.3539 12.2362C12.868 11.7271 13.125 11.115 13.125 10.4C13.125 9.685 12.868 9.07292 12.3539 8.56375C11.8398 8.05458 11.2219 7.8 10.5 7.8C9.77812 7.8 9.16016 8.05458 8.64609 8.56375C8.13203 9.07292 7.875 9.685 7.875 10.4C7.875 11.115 8.13203 11.7271 8.64609 12.2362C9.16016 12.7454 9.77812 13 10.5 13ZM10.5 22.555C13.1687 20.1283 15.1484 17.9237 16.4391 15.9412C17.7297 13.9587 18.375 12.1983 18.375 10.66C18.375 8.29833 17.6148 6.36458 16.0945 4.85875C14.5742 3.35292 12.7094 2.6 10.5 2.6C8.29062 2.6 6.42578 3.35292 4.90547 4.85875C3.38516 6.36458 2.625 8.29833 2.625 10.66C2.625 12.1983 3.27031 13.9587 4.56094 15.9412C5.85156 17.9237 7.83125 20.1283 10.5 22.555ZM10.5 26C6.97812 23.0317 4.34766 20.2746 2.60859 17.7288C0.869531 15.1829 0 12.8267 0 10.66C0 7.41 1.05547 4.82083 3.16641 2.8925C5.27734 0.964167 7.72187 0 10.5 0C13.2781 0 15.7227 0.964167 17.8336 2.8925C19.9445 4.82083 21 7.41 21 10.66C21 12.8267 20.1305 15.1829 18.3914 17.7288C16.6523 20.2746 14.0219 23.0317 10.5 26Z" fill="#2A2720"/>
</svg>
